<svg width="40" height="40" viewBox="0 0 40 40" fill="none" xmlns="http://www.w3.org/2000/svg">
<path d="M18.9159 6.39365C18.808 6.74336 18.75 7.1149 18.75 7.5C18.75 8.19036 19.3096 8.75 20 8.75H27.5C28.1904 8.75 28.75 8.19036 28.75 7.5C28.75 7.1149 28.692 6.74336 28.5841 6.39365M18.9159 6.39365C19.3879 4.86261 20.814 3.75 22.5 3.75H25C26.686 3.75 28.1121 4.86261 28.5841 6.39365M18.9159 6.39365C18.2898 6.43097 17.6656 6.47549 17.0435 6.52712C15.1583 6.68359 13.75 8.28873 13.75 10.1804V13.75M28.5841 6.39365C29.2102 6.43097 29.8344 6.47549 30.4565 6.52712C32.3417 6.68359 33.75 8.28873 33.75 10.1804V27.5C33.75 29.5711 32.0711 31.25 30 31.25H26.25M13.75 13.75H8.125C7.08947 13.75 6.25 14.5895 6.25 15.625V34.375C6.25 35.4105 7.08947 36.25 8.125 36.25H24.375C25.4105 36.25 26.25 35.4105 26.25 34.375V31.25M13.75 13.75H24.375C25.4105 13.75 26.25 14.5895 26.25 15.625V31.25M12.5 26.25L15 28.75L20 22.5" stroke="#2B1887" stroke-width="2.5" stroke-linecap="round" stroke-linejoin="round"/>
</svg>
